<svg width="40" height="40" viewBox="0 0 40 40" fill="none" xmlns="http://www.w3.org/2000/svg">
<mask id="mask0_4305_15806" style="mask-type:alpha" maskUnits="userSpaceOnUse" x="0" y="0" width="40" height="40">
<rect width="40" height="40" fill="#D9D9D9"/>
</mask>
<g mask="url(#mask0_4305_15806)">
<path d="M7.5 35.833V10.833H13.958V10.208C13.958 8.51399 14.5413 7.08366 15.708 5.91699C16.8747 4.75033 18.3053 4.16699 20 4.16699C21.6947 4.16699 23.1253 4.75033 24.292 5.91699C25.4587 7.08366 26.042 8.51399 26.042 10.208V10.833H32.5V35.833H7.5ZM16.042 10.208V10.833H23.958V10.208C23.958 9.09733 23.576 8.15999 22.812 7.39599C22.0487 6.63199 21.1113 6.24999 20 6.24999C18.8887 6.24999 17.9513 6.63199 17.188 7.39599C16.424 8.15999 16.042 9.09733 16.042 10.208ZM9.583 33.75H30.417V12.917H26.042V17.917H23.958V12.917H16.042V17.917H13.958V12.917H9.583V33.75Z" fill="#29474C"/>
</g>
</svg>
