<svg width="26" height="4" viewBox="0 0 26 4" fill="none" xmlns="http://www.w3.org/2000/svg">
<path d="M2.708 3.83299C2.208 3.83299 1.77767 3.65266 1.417 3.29199C1.05567 2.93066 0.875 2.49999 0.875 1.99999C0.875 1.49999 1.05567 1.06933 1.417 0.707993C1.77767 0.347326 2.222 0.166992 2.75 0.166992C3.25 0.166992 3.68067 0.347326 4.042 0.707993C4.40267 1.06933 4.583 1.49999 4.583 1.99999C4.583 2.49999 4.40267 2.93066 4.042 3.29199C3.68067 3.65266 3.236 3.83299 2.708 3.83299ZM13 3.83299C12.5 3.83299 12.0693 3.65266 11.708 3.29199C11.3473 2.93066 11.167 2.49999 11.167 1.99999C11.167 1.49999 11.3473 1.06933 11.708 0.707993C12.0693 0.347326 12.5 0.166992 13 0.166992C13.5 0.166992 13.9307 0.347326 14.292 0.707993C14.6527 1.06933 14.833 1.49999 14.833 1.99999C14.833 2.49999 14.6527 2.93066 14.292 3.29199C13.9307 3.65266 13.5 3.83299 13 3.83299ZM23.25 3.83299C22.75 3.83299 22.3193 3.65266 21.958 3.29199C21.5973 2.93066 21.417 2.49999 21.417 1.99999C21.417 1.49999 21.5973 1.06933 21.958 0.707993C22.3193 0.347326 22.764 0.166992 23.292 0.166992C23.792 0.166992 24.2223 0.347326 24.583 0.707993C24.9443 1.06933 25.125 1.49999 25.125 1.99999C25.125 2.49999 24.9443 2.93066 24.583 3.29199C24.2223 3.65266 23.778 3.83299 23.25 3.83299Z" fill="#29474C"/>
</svg>
