<svg width="40" height="40" viewBox="0 0 40 40" fill="none" xmlns="http://www.w3.org/2000/svg">
<mask id="mask0_4305_15799" style="mask-type:alpha" maskUnits="userSpaceOnUse" x="0" y="0" width="40" height="40">
<rect width="40" height="40" fill="#D9D9D9"/>
</mask>
<g mask="url(#mask0_4305_15799)">
<path d="M20.001 33.875L18.501 32.5C15.6676 29.9167 13.3273 27.6943 11.48 25.833C9.63264 23.9723 8.1673 22.3197 7.08397 20.875C6.00064 19.4303 5.24364 18.118 4.81297 16.938C4.38297 15.7573 4.16797 14.5837 4.16797 13.417C4.16797 11.0837 4.94564 9.139 6.50097 7.583C8.0563 6.02767 9.98697 5.25 12.293 5.25C13.8203 5.25 15.2436 5.625 16.563 6.375C17.883 7.125 19.029 8.20833 20.001 9.625C21.0563 8.153 22.23 7.05567 23.522 6.333C24.8133 5.611 26.209 5.25 27.709 5.25C30.015 5.25 31.9456 6.02767 33.501 7.583C35.0563 9.139 35.834 11.0837 35.834 13.417C35.834 14.5837 35.619 15.7573 35.189 16.938C34.7583 18.118 34.0013 19.4303 32.918 20.875C31.8346 22.3197 30.3693 23.9723 28.522 25.833C26.6746 27.6943 24.3343 29.9167 21.501 32.5L20.001 33.875ZM20.001 31.083C22.723 28.583 24.973 26.4443 26.751 24.667C28.529 22.889 29.9316 21.3333 30.959 20C31.987 18.6667 32.7093 17.486 33.126 16.458C33.5426 15.4307 33.751 14.417 33.751 13.417C33.751 11.667 33.1816 10.2157 32.043 9.063C30.9036 7.90967 29.459 7.333 27.709 7.333C26.3203 7.333 25.0426 7.743 23.876 8.563C22.7093 9.38233 21.7233 10.5697 20.918 12.125H19.084C18.2506 10.5697 17.2576 9.38233 16.105 8.563C14.9523 7.743 13.6816 7.333 12.293 7.333C10.5703 7.333 9.13264 7.90967 7.97997 9.063C6.8273 10.2157 6.25097 11.667 6.25097 13.417C6.25097 14.417 6.4593 15.4377 6.87597 16.479C7.29264 17.521 8.01497 18.7087 9.04297 20.042C10.0703 21.3753 11.473 22.924 13.251 24.688C15.029 26.4513 17.279 28.583 20.001 31.083Z" fill="#29474C"/>
</g>
</svg>
