<svg width="16" height="19" viewBox="0 0 16 19" fill="none" xmlns="http://www.w3.org/2000/svg">
<path d="M2 10.9999C2 11.9999 2.24167 12.9372 2.725 13.8119C3.20833 14.6872 3.86667 15.3916 4.7 15.9249C4.63333 15.7749 4.58333 15.6289 4.55 15.4869C4.51667 15.3456 4.5 15.1999 4.5 15.0499C4.5 14.5832 4.58733 14.1459 4.762 13.7379C4.93733 13.3292 5.19167 12.9582 5.525 12.6249L8 10.1999L10.475 12.6249C10.8083 12.9582 11.0627 13.3292 11.238 13.7379C11.4127 14.1459 11.5 14.5832 11.5 15.0499C11.5 15.1999 11.4833 15.3456 11.45 15.4869C11.4167 15.6289 11.3667 15.7749 11.3 15.9249C12.1333 15.3916 12.7917 14.6872 13.275 13.8119C13.7583 12.9372 14 11.9999 14 10.9999C14 10.1666 13.846 9.3789 13.538 8.6369C13.2293 7.89557 12.7833 7.23324 12.2 6.6499C11.8667 6.86657 11.5167 7.0289 11.15 7.1369C10.7833 7.24557 10.4083 7.2999 10.025 7.2999C8.99167 7.2999 8.096 6.95824 7.338 6.2749C6.57933 5.59157 6.14167 4.74157 6.025 3.7249C5.375 4.2749 4.8 4.8459 4.3 5.4379C3.8 6.02924 3.37933 6.63324 3.038 7.2499C2.696 7.86657 2.43767 8.49157 2.263 9.1249C2.08767 9.75824 2 10.3832 2 10.9999ZM8 12.2999L6.575 13.6999C6.39167 13.8832 6.25 14.0916 6.15 14.3249C6.05 14.5582 6 14.7999 6 15.0499C6 15.5832 6.196 16.0416 6.588 16.4249C6.97933 16.8082 7.45 16.9999 8 16.9999C8.55 16.9999 9.021 16.8082 9.413 16.4249C9.80433 16.0416 10 15.5832 10 15.0499C10 14.7832 9.95 14.5372 9.85 14.3119C9.75 14.0872 9.60833 13.8832 9.425 13.6999L8 12.2999ZM7.5 0.899902V3.2999C7.5 3.9999 7.746 4.59157 8.238 5.0749C8.72933 5.55824 9.325 5.7999 10.025 5.7999C10.325 5.7999 10.6167 5.74157 10.9 5.6249C11.1833 5.50824 11.4417 5.34157 11.675 5.1249L12.1 4.6749C13.15 5.34157 13.979 6.23724 14.587 7.3619C15.1957 8.48724 15.5 9.6999 15.5 10.9999C15.5 13.0999 14.775 14.8749 13.325 16.3249C11.875 17.7749 10.1 18.4999 8 18.4999C5.9 18.4999 4.125 17.7749 2.675 16.3249C1.225 14.8749 0.5 13.0999 0.5 10.9999C0.5 9.06657 1.12933 7.20824 2.388 5.4249C3.646 3.64157 5.35 2.13324 7.5 0.899902Z" fill="white"/>
</svg>
