<svg width="12" height="12" viewBox="0 0 12 12" fill="none" xmlns="http://www.w3.org/2000/svg">
<path d="M3.73438 0.5C3.15104 0.5 2.60938 0.645833 2.10938 0.9375C1.61979 1.22917 1.22917 1.625 0.9375 2.125C0.645833 2.61458 0.5 3.15104 0.5 3.73438V8.26562C0.5 8.84896 0.645833 9.39062 0.9375 9.89062C1.22917 10.3802 1.61979 10.7708 2.10938 11.0625C2.60938 11.3542 3.15104 11.5 3.73438 11.5H8.26562C8.84896 11.5 9.38542 11.3542 9.875 11.0625C10.375 10.7708 10.7708 10.3802 11.0625 9.89062C11.3542 9.39062 11.5 8.84896 11.5 8.26562V3.73438C11.5 3.15104 11.3542 2.61458 11.0625 2.125C10.7708 1.625 10.375 1.22917 9.875 0.9375C9.38542 0.645833 8.84896 0.5 8.26562 0.5H3.73438ZM3.73438 1.5H8.26562C8.67188 1.5 9.04688 1.59896 9.39062 1.79688C9.73438 1.99479 10.0052 2.26562 10.2031 2.60938C10.401 2.95312 10.5 3.32812 10.5 3.73438V8.26562C10.5 8.67188 10.401 9.04688 10.2031 9.39062C10.0052 9.73438 9.73438 10.0052 9.39062 10.2031C9.04688 10.401 8.67188 10.5 8.26562 10.5H3.73438C3.32812 10.5 2.95312 10.401 2.60938 10.2031C2.26562 10.0052 1.99479 9.73438 1.79688 9.39062C1.59896 9.04688 1.5 8.67188 1.5 8.26562V3.73438C1.5 3.32812 1.59896 2.95312 1.79688 2.60938C1.99479 2.26562 2.26562 1.99479 2.60938 1.79688C2.95312 1.59896 3.32812 1.5 3.73438 1.5ZM8.95312 2.59375C8.82812 2.59375 8.71875 2.64062 8.625 2.73438C8.54167 2.81771 8.5 2.92188 8.5 3.04688C8.5 3.17188 8.54167 3.28125 8.625 3.375C8.71875 3.45833 8.82812 3.5 8.95312 3.5C9.07812 3.5 9.18229 3.45833 9.26562 3.375C9.35938 3.28125 9.40625 3.17188 9.40625 3.04688C9.40625 2.92188 9.35938 2.81771 9.26562 2.73438C9.18229 2.64062 9.07812 2.59375 8.95312 2.59375ZM6 3C5.45833 3 4.95833 3.13542 4.5 3.40625C4.04167 3.67708 3.67708 4.04167 3.40625 4.5C3.13542 4.95833 3 5.45833 3 6C3 6.54167 3.13542 7.04167 3.40625 7.5C3.67708 7.95833 4.04167 8.32292 4.5 8.59375C4.95833 8.86458 5.45833 9 6 9C6.54167 9 7.04167 8.86458 7.5 8.59375C7.95833 8.32292 8.32292 7.95833 8.59375 7.5C8.86458 7.04167 9 6.54167 9 6C9 5.45833 8.86458 4.95833 8.59375 4.5C8.32292 4.04167 7.95833 3.67708 7.5 3.40625C7.04167 3.13542 6.54167 3 6 3ZM6 4C6.36458 4 6.69792 4.08854 7 4.26562C7.3125 4.44271 7.55729 4.6875 7.73438 5C7.91146 5.30208 8 5.63542 8 6C8 6.36458 7.91146 6.70312 7.73438 7.01562C7.55729 7.31771 7.3125 7.55729 7 7.73438C6.69792 7.91146 6.36458 8 6 8C5.63542 8 5.29688 7.91146 4.98438 7.73438C4.68229 7.55729 4.44271 7.31771 4.26562 7.01562C4.08854 6.70312 4 6.36458 4 6C4 5.63542 4.08854 5.30208 4.26562 5C4.44271 4.6875 4.68229 4.44271 4.98438 4.26562C5.29688 4.08854 5.63542 4 6 4Z" fill="#29474C"/>
</svg>
