<svg width="11" height="11" viewBox="0 0 11 11" fill="none" xmlns="http://www.w3.org/2000/svg">
<path d="M1.32812 0C0.963542 0 0.651042 0.130208 0.390625 0.390625C0.130208 0.640625 0 0.953125 0 1.32812C0 1.69271 0.130208 2.00521 0.390625 2.26562C0.651042 2.52604 0.958333 2.65625 1.3125 2.65625C1.67708 2.65625 1.98958 2.52604 2.25 2.26562C2.51042 2.00521 2.64062 1.69271 2.64062 1.32812C2.64062 0.963542 2.51042 0.651042 2.25 0.390625C2 0.130208 1.69271 0 1.32812 0ZM7.76562 3.5C7.25521 3.5 6.8125 3.61979 6.4375 3.85938C6.13542 4.05729 5.89583 4.32292 5.71875 4.65625H5.6875V3.65625H3.5V11H5.78125V7.35938C5.78125 6.96354 5.80208 6.66146 5.84375 6.45312C5.90625 6.14062 6.02083 5.90625 6.1875 5.75C6.38542 5.57292 6.66667 5.48438 7.03125 5.48438C7.39583 5.48438 7.67188 5.58854 7.85938 5.79688C8.01562 5.96354 8.11979 6.21354 8.17188 6.54688C8.20312 6.74479 8.21875 7.03646 8.21875 7.42188V11H10.5V6.96875C10.5 6.22917 10.4323 5.63542 10.2969 5.1875C10.1406 4.64583 9.875 4.23438 9.5 3.95312C9.08333 3.65104 8.50521 3.5 7.76562 3.5ZM0.1875 3.65625V11H2.46875V3.65625H0.1875Z" fill="#29474C"/>
</svg>
