<svg width="21" height="21" viewBox="0 0 21 21" fill="none" xmlns="http://www.w3.org/2000/svg">
<path d="M3.65005 8.02486L5.60005 8.84986C5.83338 8.3832 6.07505 7.93319 6.32505 7.49986C6.57505 7.06653 6.85005 6.63319 7.15005 6.19986L5.75005 5.92486L3.65005 8.02486ZM7.20005 10.0999L10.05 12.9249C10.75 12.6582 11.5 12.2499 12.3 11.6999C13.1 11.1499 13.85 10.5249 14.55 9.82486C15.7167 8.65819 16.6294 7.36253 17.288 5.93786C17.946 4.51253 18.2334 3.19986 18.15 1.99986C16.95 1.91653 15.6334 2.20386 14.2 2.86186C12.7667 3.52053 11.4667 4.43319 10.3 5.59986C9.60005 6.29986 8.97505 7.04986 8.42505 7.84986C7.87505 8.64986 7.46672 9.39986 7.20005 10.0999ZM11.65 8.47486C11.2667 8.09153 11.075 7.62053 11.075 7.06186C11.075 6.50386 11.2667 6.03319 11.65 5.64986C12.0334 5.26653 12.5084 5.07486 13.075 5.07486C13.6417 5.07486 14.1167 5.26653 14.5 5.64986C14.8834 6.03319 15.075 6.50386 15.075 7.06186C15.075 7.62053 14.8834 8.09153 14.5 8.47486C14.1167 8.8582 13.6417 9.04986 13.075 9.04986C12.5084 9.04986 12.0334 8.8582 11.65 8.47486ZM12.125 16.4999L14.225 14.3999L13.95 12.9999C13.5167 13.2999 13.0834 13.5705 12.65 13.8119C12.2167 14.0539 11.7667 14.2915 11.3 14.5249L12.125 16.4999ZM19.9501 0.174861C20.2667 2.19153 20.0711 4.15386 19.3631 6.06186C18.6544 7.97053 17.4334 9.79153 15.7 11.5249L16.2001 13.9999C16.2667 14.3332 16.25 14.6582 16.15 14.9749C16.05 15.2915 15.8834 15.5665 15.65 15.7999L11.45 19.9999L9.35005 15.0749L5.07505 10.7999L0.150049 8.69986L4.32505 4.49986C4.55838 4.26653 4.83772 4.09986 5.16305 3.99986C5.48772 3.89986 5.81671 3.88319 6.15005 3.94986L8.62505 4.44986C10.3584 2.71653 12.175 1.49153 14.075 0.774862C15.975 0.0581949 17.9334 -0.141805 19.9501 0.174861ZM1.92505 13.9749C2.50838 13.3915 3.22072 13.0955 4.06205 13.0869C4.90405 13.0789 5.61671 13.3665 6.20005 13.9499C6.78338 14.5332 7.07072 15.2455 7.06205 16.0869C7.05405 16.9289 6.75838 17.6415 6.17505 18.2249C5.75838 18.6415 5.06272 18.9999 4.08805 19.2999C3.11272 19.5999 1.76672 19.8665 0.0500488 20.0999C0.283382 18.3832 0.550049 17.0372 0.850049 16.0619C1.15005 15.0872 1.50838 14.3915 1.92505 13.9749ZM3.35005 15.3749C3.18338 15.5415 3.01672 15.8459 2.85005 16.2879C2.68338 16.7292 2.56672 17.1749 2.50005 17.6249C2.95005 17.5582 3.39605 17.4459 3.83805 17.2879C4.27938 17.1292 4.58338 16.9665 4.75005 16.7999C4.95005 16.5999 5.05838 16.3582 5.07505 16.0749C5.09172 15.7915 5.00005 15.5499 4.80005 15.3499C4.60005 15.1499 4.35838 15.0539 4.07505 15.0619C3.79172 15.0705 3.55005 15.1749 3.35005 15.3749Z" fill="#29474C"/>
</svg>
