<svg width="18" height="19" viewBox="0 0 18 19" fill="none" xmlns="http://www.w3.org/2000/svg">
<path d="M9.18799 18.042L0.166992 9.04199V0.666992H8.52099L17.542 9.68799L9.18799 18.042ZM9.20799 15.583L15.083 9.70799L7.79199 2.41699H1.91699V8.29199L9.20799 15.583ZM3.97899 5.77099C4.34033 5.77099 4.64599 5.64599 4.89599 5.39599C5.14599 5.14599 5.27099 4.84033 5.27099 4.47899C5.27099 4.11833 5.14599 3.81266 4.89599 3.56199C4.64599 3.31266 4.34033 3.18799 3.97899 3.18799C3.61833 3.18799 3.31266 3.31266 3.06199 3.56199C2.81266 3.81266 2.68799 4.11833 2.68799 4.47899C2.68799 4.84033 2.81266 5.14599 3.06199 5.39599C3.31266 5.64599 3.61833 5.77099 3.97899 5.77099Z" fill="#29474C"/>
</svg>
