<svg width="20" height="20" viewBox="0 0 20 20" fill="none" xmlns="http://www.w3.org/2000/svg">
<path d="M13.4 8.8C13.7667 8.8 14.075 8.675 14.325 8.425C14.575 8.175 14.7 7.86667 14.7 7.5C14.7 7.13333 14.575 6.825 14.325 6.575C14.075 6.325 13.7667 6.2 13.4 6.2C13.0333 6.2 12.725 6.325 12.475 6.575C12.225 6.825 12.1 7.13333 12.1 7.5C12.1 7.86667 12.225 8.175 12.475 8.425C12.725 8.675 13.0333 8.8 13.4 8.8ZM6.6 8.8C6.96667 8.8 7.275 8.675 7.525 8.425C7.775 8.175 7.9 7.86667 7.9 7.5C7.9 7.13333 7.775 6.825 7.525 6.575C7.275 6.325 6.96667 6.2 6.6 6.2C6.23333 6.2 5.925 6.325 5.675 6.575C5.425 6.825 5.3 7.13333 5.3 7.5C5.3 7.86667 5.425 8.175 5.675 8.425C5.925 8.675 6.23333 8.8 6.6 8.8ZM10 15.2C11.05 15.2 12.0043 14.9083 12.863 14.325C13.721 13.7417 14.3583 12.9667 14.775 12H13.45C13.0833 12.6167 12.596 13.104 11.988 13.462C11.3793 13.8207 10.7167 14 10 14C9.28333 14 8.62067 13.8207 8.012 13.462C7.404 13.104 6.91667 12.6167 6.55 12H5.225C5.64167 12.9667 6.27933 13.7417 7.138 14.325C7.996 14.9083 8.95 15.2 10 15.2ZM10 19.5C8.68333 19.5 7.446 19.25 6.288 18.75C5.12933 18.25 4.125 17.575 3.275 16.725C2.425 15.875 1.75 14.8707 1.25 13.712C0.75 12.554 0.5 11.3167 0.5 10C0.5 8.68333 0.75 7.44567 1.25 6.287C1.75 5.129 2.425 4.125 3.275 3.275C4.125 2.425 5.12933 1.75 6.288 1.25C7.446 0.75 8.68333 0.5 10 0.5C11.3167 0.5 12.5543 0.75 13.713 1.25C14.871 1.75 15.875 2.425 16.725 3.275C17.575 4.125 18.25 5.129 18.75 6.287C19.25 7.44567 19.5 8.68333 19.5 10C19.5 11.3167 19.25 12.554 18.75 13.712C18.25 14.8707 17.575 15.875 16.725 16.725C15.875 17.575 14.871 18.25 13.713 18.75C12.5543 19.25 11.3167 19.5 10 19.5ZM10 18C12.2333 18 14.125 17.225 15.675 15.675C17.225 14.125 18 12.2333 18 10C18 7.76667 17.225 5.875 15.675 4.325C14.125 2.775 12.2333 2 10 2C7.76667 2 5.875 2.775 4.325 4.325C2.775 5.875 2 7.76667 2 10C2 12.2333 2.775 14.125 4.325 15.675C5.875 17.225 7.76667 18 10 18Z" fill="#9CA3AF"/>
</svg>
