<svg width="40" height="40" viewBox="0 0 40 40" fill="none" xmlns="http://www.w3.org/2000/svg">
<mask id="mask0_4305_15802" style="mask-type:alpha" maskUnits="userSpaceOnUse" x="0" y="0" width="40" height="40">
<rect width="40" height="40" fill="#D9D9D9"/>
</mask>
<g mask="url(#mask0_4305_15802)">
<path d="M9.78993 29.2434C11.3718 28.128 12.9903 27.2584 14.6451 26.6345C16.3001 26.0105 18.0848 25.6985 19.9993 25.6985C21.9138 25.6985 23.7014 26.0105 25.362 26.6345C27.0226 27.2584 28.6439 28.128 30.2258 29.2434C31.3789 27.9279 32.2527 26.5002 32.8471 24.9604C33.4414 23.4206 33.7386 21.7671 33.7386 19.9998C33.7386 16.1472 32.4119 12.8942 29.7584 10.2407C27.1049 7.58721 23.8519 6.26046 19.9993 6.26046C16.1468 6.26046 12.8937 7.58721 10.2402 10.2407C7.58672 12.8942 6.25997 16.1472 6.25997 19.9998C6.25997 21.7671 6.56002 23.4206 7.1601 24.9604C7.76018 26.5002 8.63679 27.9279 9.78993 29.2434ZM19.9934 21.0468C18.4874 21.0468 17.2194 20.5299 16.1895 19.496C15.1596 18.4622 14.6446 17.1923 14.6446 15.6863C14.6446 14.1802 15.1615 12.9122 16.1953 11.8823C17.2292 10.8524 18.4991 10.3374 20.0052 10.3374C21.5112 10.3374 22.7792 10.8543 23.8091 11.8882C24.839 12.922 25.354 14.1919 25.354 15.698C25.354 17.204 24.8371 18.472 23.8033 19.5019C22.7694 20.5318 21.4995 21.0468 19.9934 21.0468ZM20.0123 35.8331C17.8163 35.8331 15.7562 35.4196 13.832 34.5927C11.9078 33.7658 10.2292 32.6351 8.79622 31.2006C7.36328 29.7661 6.23335 28.0897 5.40643 26.1713C4.57949 24.2529 4.16602 22.1951 4.16602 19.9978C4.16602 17.8004 4.57949 15.7432 5.40643 13.8262C6.23335 11.9092 7.36404 10.2334 8.79852 8.799C10.233 7.36453 11.9094 6.23384 13.8278 5.40692C15.7462 4.57998 17.804 4.1665 20.0013 4.1665C22.1987 4.1665 24.2559 4.57998 26.1729 5.40692C28.0899 6.23384 29.7657 7.36453 31.2001 8.799C32.6346 10.2334 33.7653 11.9095 34.5922 13.8271C35.4191 15.7447 35.8326 17.7979 35.8326 19.9868C35.8326 22.1828 35.4191 24.2429 34.5922 26.1671C33.7653 28.0914 32.6346 29.7699 31.2001 31.2029C29.7657 32.6358 28.0896 33.7658 26.172 34.5927C24.2544 35.4196 22.2012 35.8331 20.0123 35.8331ZM19.9993 33.7391C21.5335 33.7391 23.0355 33.4943 24.5052 33.0046C25.9749 32.5149 27.3341 31.7583 28.5827 30.7348C27.3341 29.8032 25.9863 29.0799 24.5394 28.5649C23.0924 28.05 21.5791 27.7925 19.9993 27.7925C18.4195 27.7925 16.9035 28.0473 15.4512 28.5569C13.9989 29.0665 12.6574 29.7925 11.4266 30.7348C12.6681 31.7583 14.0237 32.5149 15.4934 33.0046C16.9632 33.4943 18.4651 33.7391 19.9993 33.7391ZM20.0008 18.9528C20.9414 18.9528 21.7198 18.6443 22.3358 18.0272C22.952 17.4101 23.26 16.6312 23.26 15.6906C23.26 14.75 22.9515 13.9717 22.3344 13.3555C21.7173 12.7394 20.9384 12.4314 19.9978 12.4314C19.0572 12.4314 18.2788 12.7399 17.6628 13.357C17.0467 13.9741 16.7386 14.753 16.7386 15.6936C16.7386 16.6342 17.0471 17.4126 17.6642 18.0287C18.2813 18.6448 19.0602 18.9528 20.0008 18.9528Z" fill="#29474C"/>
</g>
</svg>
