<svg width="40" height="40" viewBox="0 0 40 40" fill="none" xmlns="http://www.w3.org/2000/svg">
<mask id="mask0_4305_15793" style="mask-type:alpha" maskUnits="userSpaceOnUse" x="0" y="0" width="40" height="40">
<rect width="40" height="40" fill="#D9D9D9"/>
</mask>
<g mask="url(#mask0_4305_15793)">
<path d="M32.834 34.292L22.126 23.583C21.2926 24.3057 20.3273 24.8613 19.23 25.25C18.1326 25.6387 17.0006 25.833 15.834 25.833C13.0006 25.833 10.598 24.854 8.62597 22.896C6.65397 20.9373 5.66797 18.5553 5.66797 15.75C5.66797 12.9167 6.65397 10.5207 8.62597 8.562C10.598 6.604 12.987 5.625 15.793 5.625C18.5983 5.625 20.987 6.604 22.959 8.562C24.9316 10.5207 25.918 12.9167 25.918 15.75C25.918 16.9167 25.7163 18.0487 25.313 19.146C24.9103 20.2433 24.348 21.2223 23.626 22.083L34.334 32.75L32.834 34.292ZM15.793 23.75C18.043 23.75 19.9386 22.9723 21.48 21.417C23.022 19.861 23.793 17.972 23.793 15.75C23.793 13.5 23.022 11.5973 21.48 10.042C19.9386 8.486 18.043 7.708 15.793 7.708C13.5703 7.708 11.6743 8.486 10.105 10.042C8.53564 11.5973 7.75097 13.5 7.75097 15.75C7.75097 17.972 8.53564 19.861 10.105 21.417C11.6743 22.9723 13.5703 23.75 15.793 23.75Z" fill="#29474C"/>
</g>
</svg>
